<?xml version="1.0" encoding="utf-8"?>
<!-- Generator: Adobe Illustrator 21.0.0, SVG Export Plug-In . SVG Version: 6.00 Build 0)  -->
<svg version="1.1" id="Layer_1" xmlns="http://www.w3.org/2000/svg" xmlns:xlink="http://www.w3.org/1999/xlink" x="0px" y="0px"
	 viewBox="0 0 500.8 192.6" style="enable-background:new 0 0 500.8 192.6;" xml:space="preserve">
<style type="text/css">
	.st0{enable-background:new    ;}
	.st1{fill:#FFFFFF;}
</style>
<g class="st0">
	<path class="st1" d="M43.7,79c7.8,0,11.7,2.2,11.7,6.6c0,5.1-4.5,7.7-13.4,7.7c-2,0-4.1-0.4-6.4-1.2c-2.6,2-4.6,4.5-6,7.5
		c-1.4,3-2.1,7.3-2.1,13c0,5.7,2,9.9,6,12.6c4,2.7,8.7,4.1,14.1,4.1c5.4,0,9.8-1,13.2-2.9c3.4-2,6.3-4.1,8.8-6.4
		c2.5-2.3,4.5-4.4,6.1-6.4c1.6-2,2.7-2.9,3.4-2.9c0.7,0,1.3,0.5,1.7,1.6c0.4,1.1,0.7,2.4,0.7,4.1c0,8-4,15.1-11.9,21.1
		c-7.9,6.1-17.4,9.1-28.4,9.1c-17.2,0-28.3-5.6-33.4-16.7c-1.8-3.9-2.7-8.6-2.7-14.1c0-14.3,6.4-24.4,19.2-30.1
		c-6.5-5.1-9.8-12.8-9.8-23.2c0-4.9,1.2-9.5,3.6-13.7c-2.2-2.8-4-5.8-5.4-8.9c-1.4-3.1-2.1-5.5-2.1-7.1c0-2.8,0.9-4.2,2.7-4.2
		c1.3,0,2.8,1.1,4.6,3.2c1.8,2.2,3.3,3.9,4.5,5.2c1.2,1.3,2.4,2.4,3.6,3.2c7.6-5.2,16.5-7.8,26.8-7.8c10.3,0,17.1,3.2,20.5,9.6
		c1.3,2.4,1.9,5.4,1.9,8.9c0,5.3-2.1,9.8-6.2,13.4c-4.1,3.6-9.5,5.4-16.2,5.4s-13-2.4-18.8-7.2c-0.1,0.4-0.1,0.8-0.1,1.2V67
		c0,1.8,0.5,3.9,1.5,6.4c1,2.5,2.3,4.5,3.8,6.1C40.6,79.2,42.1,79,43.7,79z M60.3,53.1c0-3.9-2.9-5.9-8.6-5.9
		c-5.7,0-10.3,2-13.8,5.9c4.8,3.3,9.8,5,14.8,5C57.8,58.1,60.3,56.4,60.3,53.1z"/>
	<path class="st1" d="M94.6,142c-2.2,3.2-4,4.7-5.3,4.7c-2.6,0-4.9-0.7-7-2c-2.1-1.3-3-2.7-3-4.1c0-0.1,0.5-0.8,1.5-2.1
		c5.7-7.7,11.3-15.5,16.8-23.5c-1.9-7.8-3.6-12.8-5.2-15c-0.7-1-1.5-1.5-2.4-1.4c-3.4,0-5.9-1.1-7.4-3.2c-1.5-2.1-2.3-4.2-2.3-6.3
		c0-3.5,1.3-7.3,3.8-11.3c2.5-4,5.4-6,8.6-6c3.2,0,6.4,1.9,9.7,5.8c3.3,3.9,6.3,8.9,8.9,15.3l0.4,1.5c1.2-1.6,2.4-3.3,3.8-5
		c4.8-6.7,7.7-11,8.6-12.9c0.9-1.9,1.9-2.9,3-2.9c2.3,0,4.7,0.6,7,1.7c2.3,1.1,3.5,2.6,3.4,4.5c0,1.9-0.6,3.5-1.6,4.9
		c-1,1.4-2.5,3-4.4,4.8c-1.9,1.9-4.2,4.2-6.8,7c-2.7,2.8-5.7,6.6-9,11.3c2.3,7.5,3.9,12.3,4.8,14.4c2.1,4.6,4,6.9,5.8,6.9
		c1.3,0,3-1,5-2.9c2-1.9,3.9-4,5.9-6.2c2-2.3,3.8-4.3,5.4-6.2c1.7-1.9,2.8-2.9,3.4-2.9c1.3,0,1.9,1.7,1.9,5.1c0,7-3.2,13.8-9.5,20.5
		c-6.3,6.6-13,9.9-20.2,9.9c-3.4,0-6.4-1.5-9.1-4.6c-2.6-3.1-5.1-6.9-7.3-11.7C99.2,134.9,96.8,138.8,94.6,142z"/>
	<path class="st1" d="M166.5,83.1c4.7-5.9,10.6-8.9,17.8-8.9c10.4,0,17,4.7,19.7,14.1c0.8,2.8,1.2,5.9,1.2,9.3
		c0,7.6-2.2,15.1-6.6,22.6c-4.4,7.4-9.8,12.4-16,15h1.6c6.5,0,13.2-2.7,19.9-8.1c4.3-3.4,7.7-6.9,10.1-10.6c2.5-3.7,4.3-5.5,5.6-5.5
		c1.3,0,1.9,1.6,1.9,4.8c0,5.6-2.1,11.3-6.4,17c-6.4,8.2-14.7,13-24.7,14.4c-7.2,0.9-12.4,1.1-15.4,0.5c-3-0.6-5.4-1.4-7-2.3
		c-3.5-2-5.2-5-5.2-9c0-2.2,0.4-4.2,1.2-6c7.1,0,12.4-3,16.1-9c3.7-6,5.5-13.5,5.5-22.6c0-2.2-0.7-4.2-2.1-5.9
		c-1.4-1.8-3.3-2.6-5.7-2.6c-2.4,0-4.9,1.2-7.7,3.5c-2.8,2.3-5,5.2-6.6,8.6c-1.7,3.5-3.2,6.9-4.5,10.2c-1.3,3.4-2.4,7.6-3.2,12.7
		c-1.4,9.2-3.1,20.9-4.9,35c-1.8,14.1-3,21.7-3.4,22.7c-0.4,1.1-1.1,2-2,2.9c-0.9,0.9-1.8,1.4-2.8,1.4c-1.8,0-3.3-0.6-4.4-1.8
		c-3.2-3.1-5.1-5.5-5.6-7.1c-0.5-1.7-0.8-3.8-0.8-6.4c0-9.8,1.5-23.6,4.4-41.4c3-17.8,8.1-36.2,15.3-55.4c1.1-2.8,3-4.2,5.7-4.2
		c2.7,0,5.3,2.7,7.8,8.1C165.7,80.6,166.2,81.9,166.5,83.1z"/>
	<path class="st1" d="M244.8,146.5c-12.8,0.1-21.5-5.3-26.2-16.1c-1.6-3.8-2.4-8.6-2.4-14.4c0-5.8,0.4-11.9,1.3-18.4
		c1.8-13,5.2-25.1,10.3-36.1c2.6-5.6,5.5-10.4,8.7-14.4c7.1-8.8,14.9-13.2,23.6-13.1c3.8,0,6.9,1.2,9.1,3.5
		c2.2,2.4,3.3,5.7,3.3,10.2c0,4.4-1.2,8.9-3.5,13.3c-2.3,4.5-5.3,9.1-8.9,13.8c-3.6,4.8-7.6,9.8-12,15c-4.4,5.2-8.7,10.9-12.9,17v6
		c0,5.6,1.1,9.7,3.2,12.3c2.1,2.6,4.7,3.9,7.5,3.9c7.7,0,14.5-4.3,20.4-12.8c2.4-3.5,4.2-5.3,5.5-5.3c1.3,0,1.9,1.7,1.9,5.1
		c0,3.4-0.8,6.9-2.5,10.5c-1.7,3.6-3.8,6.8-6.5,9.8c-2.7,3-5.8,5.4-9.3,7.3C252.1,145.6,248.5,146.5,244.8,146.5z M252.1,65.8
		c1.9-2.6,3.4-5,4.4-7.1c1.1-2.1,1.6-4.3,1.6-6.5c0-2.3-0.7-3.4-2.1-3.4c-3.1,0-6.6,3.6-10.4,10.8c-3.8,7.2-6.6,16.7-8.5,28.4
		c3-5.2,5.8-9.6,8.4-13.1C248,71.4,250.2,68.4,252.1,65.8z"/>
	<path class="st1" d="M320.1,133.3c-7.1,9.3-15.5,14-25.4,14s-17.3-2.8-22.2-8.5c-4.9-5.7-7.3-12.7-7.2-21.1
		c-0.1-11.9,3.3-22.2,10.1-30.8c6.8-8.6,15.7-12.9,26.7-12.9c5,0,9,0.7,12.1,2.1c5.3,2.4,7.9,4.7,7.9,6.8c0,1.6-3.7,2.4-11.1,2.5
		c-7.4,0.1-13.6,2.9-18.5,8.6c-5,5.7-7.4,12.8-7.4,21.4c0,4.5,1.2,8.3,3.6,11.4c2.4,3.1,5.7,4.6,10.1,4.6c4.3,0,7.9-1,10.8-3
		c-6.4-4.8-9.5-11.8-9.5-20.9c-0.1-4.8,1.5-9.2,4.6-13.2c3.2-4,7.2-6,12.2-6c5,0,8.5,1.5,10.7,4.6c2.1,3.1,3.2,7.1,3.2,12
		c0,4.9-1,10-3.1,15.4h0.8c3.9-0.1,7.3-1.7,10.2-4.7c1.1-1.2,2-2.3,2.8-3.2s1.5-1.4,2.3-1.4c1.2,0,1.9,1.7,1.9,5
		c0,6.1-1.6,10.7-4.8,13.8c-3.2,3.1-6.8,4.6-10.7,4.6C326.1,134.2,322.8,133.9,320.1,133.3z M318.9,115.9c1.5-3.6,2.3-7.1,2.3-10.5
		c0-3.4-1-5.1-3-5.1c-0.8,0-1.5,0.7-2,2c-0.5,1.3-0.8,2.6-0.8,3.8C315.4,109.9,316.6,113.3,318.9,115.9z"/>
	<path class="st1" d="M358.4,120.8l0.8,18.4c0,2.4-1.1,4.6-3.4,6.5c-2.2,1.9-5.3,2.9-9.1,2.9c-2.2,0-3.8-1.3-4.6-3.9
		c-0.9-2.6-1.3-6.4-1.3-11.4c0-10.5,0.5-18.8,1.4-24.7c0.9-6,2.8-12,5.6-18.1c-4.1-4.4-6.2-8.2-6.2-11.4c0-6.7,3.2-10.1,9.7-10.1
		c3.3,0,6.2,2,8.7,5.9c1.8,2.7,3.1,5.9,3.9,9.5c1.3,0.5,2.8,0.8,4.7,0.8c2.6,0,5.6-1,9-2.9l3.5-2c1.1-0.6,2-0.9,2.8-0.9
		c2.6,0,5.2,4.3,7.8,12.8c-0.8,3.9-1.7,7.7-2.6,11.3c-0.9,3.6-2,8-3.3,13.1c-1.3,5.1-1.9,8.5-1.9,10.3c0,1.8,0.4,2.6,1.4,2.6
		c1.3,0,3-1,5-2.9c2-1.9,3.9-4,5.9-6.2c2-2.3,3.8-4.3,5.4-6.2c1.7-1.9,2.8-2.9,3.4-2.9c1.3,0,1.9,1.7,1.9,5.1
		c0,6.9-2.7,13.7-8.1,20.5c-5.4,6.7-11.6,10-18.6,9.9c-4.1,0-7.2-1.9-9.3-5.6c-2.1-3.7-3.1-8.2-3.2-13.5c0-10.5,2.1-20.5,6.3-29.9
		c-2,0.9-4.2,1.4-6.6,1.4c-2.5,0-4.2-0.1-5.3-0.3c-0.8,3.8-1.6,7.6-2.4,11.5C358.8,113.9,358.4,117.5,358.4,120.8z"/>
	<path class="st1" d="M431.3,129.7c7,0,13.7-3.1,20.3-9.3c2.4-2.3,4.4-4.4,5.9-6.4c1.5-2,2.7-2.9,3.5-2.9c1.3,0,1.9,1.4,1.9,4.2
		c0,2.8-0.7,5.9-2,9.4c-1.3,3.5-3.6,6.8-6.7,10.2c-7.7,8.1-18.2,12.2-31.7,12.2c-10.6,0-17.9-4.3-21.7-12.9c-1.3-3-2-7.3-2-12.9
		c0-5.6,1-11.5,3-17.5c2-6.1,4.6-11.3,7.8-15.7c3.3-4.4,7-7.8,11.3-10.3c4.3-2.5,8.9-3.7,13.8-3.7c4.9,0,8.6,1.4,11.3,4.1
		c2.6,2.7,4,6.2,4,10.5c0,4.3-1,7.8-2.9,10.6c-1.9,2.8-4.4,5.1-7.4,6.9c-3,1.9-6.4,3.5-10.1,5c-3.7,1.5-7.4,3.1-10.9,4.9v3.8
		c0.1,3.6,1.4,6.2,4,7.7C425.1,128.8,428,129.6,431.3,129.7z M429.1,87.3c-4.7,0-7.9,6.1-9.7,18.2c1.9-1.4,3.6-2.7,5.3-3.8
		c1.7-1.1,3.1-2.2,4.4-3.2c2.7-2.2,4.1-4.7,4.2-7.5C433.2,88.5,431.8,87.3,429.1,87.3z"/>
	<path class="st1" d="M475,127.7c3.6-3.4,7.5-5,11.7-5c4.2,0,6.3,2.6,6.3,7.8c0,5.2-1.5,9.9-4.5,14c-3,4.1-6,6.1-9.1,6
		c-5.4,0-9.5-3.4-12.5-10.1C468.7,135.3,471.4,131,475,127.7z"/>
</g>
</svg>
