<svg id="Layer_1" data-name="Layer 1" xmlns="http://www.w3.org/2000/svg" viewBox="0 0 1204 299"><defs><style>.cls-1{fill:#fff;}.cls-2{fill:#f60;}.cls-3{fill:#091c5a;}</style></defs><title>Artboard 2</title><path class="cls-1" d="M154.28,69.26q0,4.46,0,8.91c9,0,19.14,1.56,25.42,8.66,5.64,6.44,6.27,15.47,6.58,23.63q0,70.55,0,141.09c-.49,8.65-.43,18.18-5.78,25.5-5.89,7.25-16.13,7.79-24.75,8q0,4.47,0,8.94c27.08,0,54.16,0,81.24,0,0-3,0-6,0-9a52.12,52.12,0,0,1-17.12-2.22,16.5,16.5,0,0,1-10.34-9.86c-2.8-7.43-2.73-15.51-3-23.33q0-61.57,0-123.14c0-2.6-.34-5.17-.54-7.76q85.71,88.53,171.46,177c4.61.11,9.22.05,13.83.06q0-71.62,0-143.26c.13-16-.39-31.94.59-47.88.71-7.27,1.93-15.43,7.75-20.52,6.22-5.41,15.06-5.83,22.92-5.91,0-3,0-6,0-8.94q-40.5,0-81,0c0,3,0,6,0,8.93,8,.07,17.24.55,23.32,6.55,5.69,6.46,5.79,15.62,6.18,23.75q0,48,0,96c0,3.14.35,6.26.63,9.39-47.24-48-93.89-96.48-141-144.59Q192.47,69.23,154.28,69.26ZM882.39,261.1a13.63,13.63,0,0,0-3.69,6.74l5-1.77c.44.69,1.33,2.09,1.78,2.78-.45,4.7-7.31,3.29-7.68,7.74C877.1,283.12,882.47,288,884,294c3.26,0,6.52,0,9.78.14-4-8.21-5.33-17.56-4.7-26.63a24.93,24.93,0,0,1,2.21-8.09A83.48,83.48,0,0,0,882.39,261.1Zm140.27,3c1.39,1.91,2.86,3.94,2.9,6.42-.17,2.43-1.67,4.45-2.88,6.46-1.49-1.77-2.11-4-3.16-6-1.68-1.15-2,1.38-2.42,2.45-1.64,7.28,1.86,14.31,5.11,20.6q3.82,0,7.69,0c-1.17-6.43-2.56-12.89-2.59-19.46.26-3.91,2-7.49,3.36-11.12C1028,263.64,1025.33,263.87,1022.66,264.09ZM896,272.42a64.53,64.53,0,0,0,3.8,21.56q3.33,0,6.68,0c0-6.93,1-13.83.77-20.75-1.86-3.05-5-5.2-7.39-7.91C898,267.3,895.92,269.55,896,272.42Zm17.59-.2c-.34,7.26-1.15,14.49-1.67,21.74,1.93,0,3.88,0,5.83,0,2.28-6.89,6-13.36,7.27-20.54.37-2.88-2.43-4.62-5-4.47C917.34,268.6,915.33,270.59,913.56,272.22Z"/><path class="cls-1" d="M834.45,25.73c4.38-1.45,7.93-4.85,12.51-5.78a40.25,40.25,0,0,1,11.7,2.86c.44,1.27.91,2.54,1.42,3.8,4.95.27,5.82,5.64,7.77,9.12C873.59,37,879.9,37,885,40.4a31.18,31.18,0,0,1,19.94-3.86c1.24-2.7,1.78-5.81,3.44-8.27,4.46-2.65,9.06-7.93,14.75-5.88,3.6,1.65,8,1.17,11.19,3.8,3.16,3.68,4.54,8.45,6.92,12.61-1.1,3.54-.86,7.38-2.05,10.86-3,3.8-6.5,7.51-11.09,9.34,1.9,6.46.59,13.32-2,19.39a14.34,14.34,0,0,0,4.71-2.57c-.69,3.17-.38,6.58-1.76,9.58s-3.85,5.16-5.18,8.11a23.57,23.57,0,0,1-4.35,6.55c-1.95,2-4.71,3-6.83,4.82,3.67.74,7.45.69,11.14,1.34a78.19,78.19,0,0,1,21.82,7.67c1.17,1.47.38,3.64.75,5.37-9.85-5.46-20.64-9.58-32-10.19-.2,2-.46,3.9-.63,5.85,2.6,1.86,5.68,2.94,8.49,4.46A85.24,85.24,0,0,1,940,130.91q0,3.45,0,6.9c-7.73-7.79-16.28-15.48-27.09-18.54a60.67,60.67,0,0,0-5.39,6.25c-5-3.71-10.45-7.06-16.63-8.22-4-.51-4.14-5.57-5-8.67a14.77,14.77,0,0,0,8-8.13c1.46,0,2.93,0,4.42.07a6.68,6.68,0,0,0,.72-5.78c-2.71-3-7.15-2.89-10.87-3.22-6.15-.08-13-.92-18.25,3a9,9,0,0,0,2.43,6.24,33.82,33.82,0,0,0,5-1.93c-1,4.37,2,8,5.71,9.75-.24,2.49-.44,5-.58,7.47-8.32.2-16,3.75-23.26,7.35A42.64,42.64,0,0,1,853.4,117c-9.46,3.9-17.78,10-26.1,15.81,0-1.66-.06-3.32-.08-5,7-6.18,15.86-9.24,24-13.47,0-2.07,0-4.14.09-6.21a39.37,39.37,0,0,0-28.77,8c-.2-1.78-.4-3.56-.59-5.34,9.24-4.78,19.6-8.4,30.15-7.06-.19-2.25.28-5-1.53-6.68-4.84-4.69-9.16-10.32-10.6-17l3.29-1.71c-1.49-6.86-3.2-14.43,0-21.08-3.86-2.29-7.94-4.68-10.41-8.55a51.66,51.66,0,0,1-4.77-12C830.06,32.94,832.32,29.37,834.45,25.73Zm1.63,16.57c1.71,4.62,7.65,2.89,10.53,6.26A99.57,99.57,0,0,1,862,38.8c-1.12-7-8.63-9-14-12C839.76,25.63,835.68,35.52,836.08,42.3Zm78.2-10.45c-1.94,1.75-2,4.54-2.55,6.89a33,33,0,0,1,13.66,13.89,36.79,36.79,0,0,0,7.93-1.84c2-3.71,1.63-8.29.75-12.29-1.59-5.75-7.23-8.48-11.6-11.82C919.71,28.35,916.63,29.6,914.28,31.85ZM891.37,48.08c1.34.28,2.67.61,4,1,1,1.84,1.52,4,2.92,5.66a48.89,48.89,0,0,0,8.56.16L906,52.76c-3-.41-4.8-2.74-6.17-5.22C897,47.56,893.69,45.75,891.37,48.08Zm-23.6,2.11c-2,.81-2.71,2.91-3.44,4.71,3.08.09,6.16.09,9.25.08,1.51-3,4.24-5.11,5.83-8C875.31,46.94,871.44,48.54,867.77,50.19ZM849.2,61.27a7.13,7.13,0,0,0,4.66,5.37,9.75,9.75,0,0,0,6.75,5.66c2.12-.64,4.28-1.14,6.43-1.69-.08,5.14.32,10.67-2.44,15.26a76.8,76.8,0,0,1-7.72,2.83,21,21,0,0,0-1,9.48c3.07-1,5.9-2.66,8.88-3.93.55-3.12,3.17-5,5.63-6.66.44-6.74,2.1-13.32,2.59-20,.53-3.29-2.57-6.71-5.91-6.32C861.1,61.22,855.15,61.21,849.2,61.27Zm45.09,4.85c1.72,6.77,1.46,13.79,1.44,20.72,3.67.83,6.56,3.58,6.76,7.49a76.18,76.18,0,0,1,9.93,4.78,21.6,21.6,0,0,0,3.14-5.85c-2.46-2.51-6-3.1-9.17-4.33a30.64,30.64,0,0,1-1.62-4.53c-1.6-.65-3.2-1.23-4.79-1.83a72.64,72.64,0,0,0-.59-12.94L902,72.5c4.95,1,11.54.07,12.52-5.89,2.27-.3,4.51-.94,5.9-2.93-6.16-.93-12.37-1.57-18.53-2.53C899.09,62.42,897,64.91,894.29,66.12Zm-37.77,40.74a7,7,0,0,0,2.45,5,25.52,25.52,0,0,1,7.8-3.78C863.85,105.74,859.9,107.65,856.52,106.86Zm42.93,2.29c3.16,1.23,6.36,2.36,9.55,3.55,0-1.49,0-3,0-4.45C905.85,108.56,902.23,107.3,899.45,109.15Z"/><path class="cls-1" d="M1074.9,50.49c3.7-.56,6.91-2.5,10.29-4a28.64,28.64,0,0,1,9,5.64c-3.44,0-7.11.72-10.29-.92C1080.86,52.38,1077.56,52.64,1074.9,50.49Z"/><path class="cls-1" d="M819.37,61.12c.46-4.15,2.93-7.6,5.35-10.85,0,3,0,6,0,9.07C823,59.94,821.15,60.54,819.37,61.12Z"/><path class="cls-1" d="M1104,57a67.94,67.94,0,0,1,7.72-2.16c2.29,4.44,6.5,8.14,6.32,13.53-1.39-2.53-4-3.76-6.68-4.26A29.61,29.61,0,0,0,1104,57Z"/><path class="cls-1" d="M820,73.42q2.89-1,5.78-2.09c-1.43,1.85-3.85,3.52-3.41,6.16.14,6.2-2.1,12.1-2.78,18.22-.63-4.19-2.57-8-3.3-12.18C816.76,80,818.48,76.67,820,73.42Z"/><path class="cls-1" d="M944,76.25c1.34,2.29,3.08,4.46,3.75,7.07a38.47,38.47,0,0,1-1.59,8.29L940.3,93C941.28,87.39,942.88,81.88,944,76.25Z"/><path class="cls-1" d="M955.08,106.07c1,1.86,2,3.77,3,5.64l2.71-.2a102.49,102.49,0,0,1,4.07,10.58,10.76,10.76,0,0,1-9.31-7A32.88,32.88,0,0,1,955.08,106.07Z"/><path class="cls-1" d="M861.51,127a41.79,41.79,0,0,1,26.62-4.06c5.82.69,11.2,3.11,16.71,5-1.18,5.28-2.64,10.87-6.89,14.57a14.93,14.93,0,0,0-3.77-7.2c-.9,3.6-1.85,7.19-2.48,10.85-2.43,1-5.11,1.6-7.64.63-.24-3.27-.7-6.51-1.05-9.77q-1.5.69-2.91,1.5c-.1,3.13-2.16,5.64-3.12,8.51a22.47,22.47,0,0,1-6.57-2.59c.08-3.09.11-6.18,0-9.27a27.19,27.19,0,0,0-5,4.25C862.33,136,862.13,131.23,861.51,127Z"/><path class="cls-1" d="M1051.73,144.06c-1.4-6,4.37-12.92,10.67-11.36.77,1.26,1.11,3.13,2.74,3.61,2.07.41,4.22.39,6.3.88,2.16,1.72,2.65,4.69,3.57,7.15-5.13-1.66-10.38-5.37-16-3.52A25.14,25.14,0,0,0,1051.73,144.06Z"/><path class="cls-1" d="M956.79,135.69c2.65-.4,6.06-2.75,8.24-.15a26.67,26.67,0,0,0,5.41,5.24,42.55,42.55,0,0,0-12.2-1.39C957.74,138.15,957.25,136.92,956.79,135.69Z"/><path class="cls-1" d="M833.61,144.31c1.92.72,4.27,1.19,5.42,3.09,3.06,5.74,9,10,9.64,16.91-6.36-3-12.91-8-14.25-15.32A43.61,43.61,0,0,1,833.61,144.31Z"/><path class="cls-1" d="M944.17,149.66c1.59-1.63,3.16-3.3,4.67-5,2.4,2.33,4.93,4.53,7.48,6.71C952.24,151.85,947.3,153.23,944.17,149.66Z"/><path class="cls-1" d="M924,145.23c2.14.9,4.3,1.86,6.45,2.81,1.55,2.17,1.68,4.79,1.52,7.37,1.78,2.06,3.64,4,5.33,6.2-4.11-.8-7.27-3.6-10.88-5.46Q925.14,150.7,924,145.23Z"/><path class="cls-1" d="M851.27,147.22c2.65,1.41,5.25,3,7.78,4.59-.77,3.19-1.55,6.38-2.39,9.55A55.77,55.77,0,0,1,851.27,147.22Z"/><path class="cls-1" d="M1059.61,150.13c5.42-3.89,13.37.08,15,6.18-4.61-.11-9.33-1.66-13.86-.14-2.77.61-4.72,2.78-6.77,4.56C1052.29,156.11,1055.6,152,1059.61,150.13Z"/><path class="cls-1" d="M917.69,169.94c-4-5.57-3.06-12.94,0-18.73,1.11,4,2,8.14,2.8,12.24.66,3.85,4.68,5.49,7.32,7.81C924.52,172.52,919.72,173.67,917.69,169.94Z"/><path class="cls-1" d="M974.73,157.42c1.93-1,3.9-2,5.88-3a48.65,48.65,0,0,0,7.15,3.76C983.71,160.78,978.56,160,974.73,157.42Z"/><path class="cls-1" d="M823.09,160.58c2.37.55,4.76,1,7.16,1.55-3.45,2.61-6.91,5.32-9.37,8.93a55.32,55.32,0,0,0-1.5-5.55A17.33,17.33,0,0,1,823.09,160.58Z"/><path class="cls-1" d="M1060.53,163.26c4.55-1,9.38-.65,13.74-2.51,2.44-.91,3.06,2.36,4,3.89,3.26.25,6.52-3.25,9.39-.55,2.74,2.5,3.92,6.15,5.26,9.5-6.84-3.36-14.27-6.16-22-6.06-5.77.62-11,3.55-15.67,6.77-.48-2.11-.93-4.22-1.32-6.34C1056.51,167,1058.41,165,1060.53,163.26Z"/><path class="cls-1" d="M865.46,161.23a19.12,19.12,0,0,1,7.07,1.38c.4,4,1.33,8,1.92,12C870.51,170.93,866.51,166.73,865.46,161.23Z"/><path class="cls-1" d="M899.27,169.85c-.86-3.95,2.41-7,5.31-9,.87,4.48,1.63,9,3.48,13.23A44.82,44.82,0,0,1,899.27,169.85Z"/><path class="cls-1" d="M958.8,166.42a45.72,45.72,0,0,0,6.8-3.82c3.94,3,7.91,6.05,12.73,7.43C971.92,173.46,964.42,169.9,958.8,166.42Z"/><path class="cls-1" d="M1016.22,162.59c4.92.66,7.37,5.46,11.68,7.31,2.27,1.15,4,3.09,5.69,4.91,0,2-.08,4-.12,6C1026.15,176.45,1021.64,168.91,1016.22,162.59Z"/><path class="cls-1" d="M883.38,169.36a57.16,57.16,0,0,0,7.72-6.61c-.16,5-.82,11.8-6.11,13.9A62.83,62.83,0,0,1,883.38,169.36Z"/><path class="cls-1" d="M939.32,174.69a35.58,35.58,0,0,1,8.84-2.9,60.69,60.69,0,0,0,11.16,11.81C951.68,183.82,944.5,180.11,939.32,174.69Z"/><path class="cls-1" d="M992.45,172.3c2.88,1.39,4.82,4.22,6,7.12-.27,2-2,3.27-3.12,4.75a25.82,25.82,0,0,1-3-4.68C991.82,177.11,992.32,174.68,992.45,172.3Z"/><path class="cls-1" d="M833.76,174.93a14.48,14.48,0,0,1,6.07-1.41c-.12,5.85-4,10.87-8.7,14C831.71,183.29,833.19,179.2,833.76,174.93Z"/><path class="cls-1" d="M1006,175a14.33,14.33,0,0,1,10.38,2.81,7.61,7.61,0,0,0,6.37,5.91c1.76,3.27,3,6.92,5.63,9.63a55.32,55.32,0,0,0-4.48,5.64c2.08,1.43,5,2.55,5.56,5.32-.11,5.21-.85,10.39-.87,15.61-.72-.77-2-1.3-2-2.53-.18-6.48-2.94-12.43-4.8-18.53-1.77-5.88-5.5-10.86-7.84-16.5C1012.71,178.68,1009.06,176.93,1006,175Z"/><path class="cls-1" d="M1057.06,182a23.32,23.32,0,0,0,11.14-2.29c5-2.79,10.77,3.48,15.28-.81,3.55-.29,6.36,2,9,4,.93,2.88,2,5.74,2.73,8.69-4.59-.61-11.32-.6-12.75-6.15-.53-4.45-5.77-2.63-7.67-.24-1.94-.38-3.87-.76-5.8-1.08-.48,1.61-.93,3.23-1.41,4.84a12.35,12.35,0,0,1-10.18,1.12C1056.48,187.56,1057.17,184.67,1057.06,182Z"/><path class="cls-1" d="M848.37,183.45l2.62.25c-1.1,3.53-1.81,7.17-2.85,10.73-.13,1.43-1.55,2-2.69,2.36-3.34,1.13-6.9.48-10.33.37C840.92,194.11,844.8,188.74,848.37,183.45Z"/><path class="cls-1" d="M921.22,185a53,53,0,0,1,13.7-2.1,40.21,40.21,0,0,0,2.39,4.43c2.76,1.74,5.76,3.09,8.6,4.72-3.19.6-6.46,1.59-9.71.87C930.54,191.8,925.72,188.44,921.22,185Z"/><path class="cls-1" d="M1000.82,191.37c0-2.8,1.35-5.32,2.57-7.75l2.41,2.27c.08,1.5.17,3,.28,4.52,1.31,1.56,3,3,3.36,5.13-.5,2.09-2.07,3.6-3.61,5C1003.63,197.82,1001.24,195,1000.82,191.37Z"/><path class="cls-1" d="M896.3,185.45c4.17.82,8.41,1.38,12.54,2.39a82.39,82.39,0,0,1,9.46,9.59,29,29,0,0,1-9.25,2.95C904,196.11,900.29,190.64,896.3,185.45Z"/><path class="cls-1" d="M852.1,197.34A46,46,0,0,0,866.78,186h5.8c-2,4-4.14,8.63-8.51,10.59A25.79,25.79,0,0,1,852.1,197.34Z"/><path class="cls-1" d="M878.51,194.89a16.19,16.19,0,0,1,8.75-2.48c-1.08,3.65-3.34,6.73-5.71,9.63-3,4.47-8.92,4.48-13.4,6.58A45.53,45.53,0,0,0,878.51,194.89Z"/><path class="cls-1" d="M1033.32,195.79a30,30,0,0,1,4.33.16c3.6,3.74,3.36,9.21,1.84,13.81C1037.39,205.13,1035,200.6,1033.32,195.79Z"/><path class="cls-1" d="M1060.76,197.28c6.86-2.23,14.66-3.59,21.6-1.16,1.78,4.38,5.81,7.72,5.59,12.83a26.25,26.25,0,0,1-7.47-2.68,21.65,21.65,0,0,0-1.18-4.07c-4.85-2.84-10.5-.14-15.42,1.17C1062.76,201.38,1061.74,199.33,1060.76,197.28Z"/><path class="cls-1" d="M992.16,209.48c.8-3.16,3.23-5.55,5.56-7.69a14.45,14.45,0,0,1,1.14,12.53,39.65,39.65,0,0,1,4.84,3.18c.45,4.68-3,8.6-3.32,13.22-.27-4.16-1.38-8.27-4.12-11.49.32-.71,1-2.13,1.31-2.84C995.83,214.06,991.76,212.91,992.16,209.48Z"/><path class="cls-1" d="M1010.21,209.52c1.47-2.7,4.58-4,6.71-6.1.81,4.7.21,9.54,1.42,14.2.54,2.34-.47,4.64-.91,6.92,1.58.73,3.82.6,4.9,2.13-.53,3.87-3.2,6.89-5.28,10,0-3,.63-6.15-.15-9.13-1.2-1.84-3.87-1.32-5.7-2a49.75,49.75,0,0,0,.79-9.1C1011.61,214,1008.51,212.06,1010.21,209.52Z"/><path class="cls-1" d="M1062.57,220.5c.58-4.13.32-9.51,4.48-11.92,2.77-.6,5.12,1.18,7.26,2.65a34.09,34.09,0,0,0,9.44,3.84c0,3.93,0,7.87-.09,11.81-4-1.95-3.82-7.4-7.49-9.71-2.19-1.77-5.13-1.61-7.76-1.75C1066.49,217.16,1064.57,218.88,1062.57,220.5Z"/><path class="cls-1" d="M825.49,209.66c4.74.06,10.58-.61,14.21,3.14,2.82,2.49,6.33,4,9.08,6.63,0,.7,0,2.11,0,2.81l6.26,2.2c-.17,3.7-.49,7.4-.62,11.1-1.18-3.07-2.68-6.14-5.22-8.32-1.66-1.53-4-1.8-5.86-3-2.46-1.91-3.71-4.87-5.77-7.12a69.58,69.58,0,0,1-7-1.34c-3.72-.86-7.5.26-10.88,1.76C820.68,214.33,823.33,212.09,825.49,209.66Z"/><path class="cls-1" d="M900,213.2h6.06c1.42,2.87,2.76,5.78,4,8.75-3.29-.48-6.13-2.24-9-3.7C900.67,216.57,900.35,214.89,900,213.2Z"/><path class="cls-1" d="M939.39,217c2.14-1.38,4-3.47,6.59-3.93,2.19,1.32,4.46,2.6,7.13,2.57,6.08.18,8.81,6.45,11.44,11-1.93-.18-3.92-.08-5.75-.76-2.07-1.37-3.73-3.25-5.71-4.74-1.34.63-2.61,1.56-4.1,1.72-3.31-.79-6.28-2.88-9.79-2.68a20.72,20.72,0,0,1-9,5c.46-1.8.83-3.8,2.33-5.09C934.2,217.91,937.3,218.52,939.39,217Z"/><path class="cls-1" d="M874.79,218c3.82,0,7.65,0,11.49,0,.79,1.63,1.58,3.25,2.4,4.88a11.92,11.92,0,0,1-9.26,1.5C877.84,222.25,876.24,220.17,874.79,218Z"/><path class="cls-1" d="M813.32,231.31c1.24-2.85,1.79-6.73,4.9-8.22,4.58-1,8.75,1.52,12.51,3.75,4.44,3.06,8.31,6.87,13,9.61.39,1.33.44,2.88,1.43,4,1.25.84,2.81,1.07,4.06,1.95,1,2.18,1.12,4.66,1.67,7-1.75,1.76-3.51,3.52-5.3,5.24-.7-3.09-.66-6.41-2.29-9.22.38-.6,1.13-1.82,1.51-2.43-2.62-2.09-5.78-3.23-8.87-4.36-5-1.86-8.66-5.81-12.91-8.76C819.73,229.1,816.52,230.86,813.32,231.31Z"/><path class="cls-1" d="M1061.11,226.77a24.12,24.12,0,0,1,17.27,3.13c1.26,2.07,2.2,4.31,3.3,6.48-.62,2.41-1.22,4.83-1.91,7.22-4-1.06-4.86-5.2-6.26-8.49-3.57-4.06-9.14-1-13.53-.42C1059.08,232,1060.25,229.33,1061.11,226.77Z"/><path class="cls-1" d="M974,227.31c2.69,3,6.1,5.5,8,9.12,1.06,6.88,1,13.92,1,20.88a55,55,0,0,0-4.17-5.31C980.59,243.38,976.06,235.42,974,227.31Z"/><path class="cls-1" d="M924.87,231.84c4.08-.77,8-2.31,12.19-2.52,9.56,1.32,20.64-.6,28.38,6.63q.33,3.13.66,6.28c-3.46-1.61-7.47-2.67-9.55-6.17-6.5-1.46-13,.25-19.57.22l-1.4-1.69c-5,1-10.17,2.21-14.18,5.57C922.56,237.39,923.7,234.61,924.87,231.84Z"/><path class="cls-1" d="M1096.37,240.46c1.25-3.25,2.08-6.69,3.91-9.69,3.28,4.88,3.83,11.42.55,16.46C1099.3,245,1097.82,242.74,1096.37,240.46Z"/><path class="cls-1" d="M811.15,237.86c2.19.08,4.53-.09,6.48,1.15,3.39,1.94,7.11,3.4,10.16,5.86,1,2.43.8,5.2,2.12,7.55,2.85.76,5.7,1.58,8.52,2.51a21,21,0,0,1-1.71,13.41c-2-4.57-3.35-9.45-5.64-13.88-4.68-5-11.42-6.89-17.29-10-1.57-.84-3.38,0-5,.06A14.58,14.58,0,0,1,811.15,237.86Z"/><path class="cls-1" d="M1049.09,247.71c2.92-3,6-6,8.79-9.14,1.82,1.25,3.66,2.63,6,2.86q-.36,2.49-.69,5a12,12,0,0,1,10.71,5.22c-.65,1-1.28,1.9-1.91,2.86a19.32,19.32,0,0,0-10.77-3.07c-1-2.64-1.42-7.44-5.14-7.21C1053.43,244.61,1051.43,246.63,1049.09,247.71Z"/><path class="cls-1" d="M933.91,244.59c6.64-.83,13.65-2.91,20.15-.28,4,1.57,8.22,2.92,12,5,2.58,1.49,3.24,4.5,3.69,7.21a40.43,40.43,0,0,1,4.7,2.21,92.11,92.11,0,0,0-3.3,9.7c-1.33-4.7-3-10.69-8.55-11.8-.77-1.77-1.36-3.71-2.78-5.07-2.15-2.8-6.1-2-9.14-2.61,1.42,1.78,2.89,3.56,4.21,5.43L953.23,257c2.65,2.07,6.45,3.24,7.54,6.77,1.14,2.1.5,4.53.51,6.8q-2.13,1.06-4.23,2.15c-.24-4,.34-8.6-2.4-11.84-1.76-2.33-5.55-.22-7-3a69.11,69.11,0,0,0-7-8.53c-4.25,2.07-9,1.57-13.54,2.13C929,248.85,930.26,245,933.91,244.59Z"/><path class="cls-1" d="M1087.36,250q1.61-2.82,3.37-5.55c1.71,1.89,4.19,3.47,4.9,6.06.06,2.76-.57,5.86,1.8,7.92-.71,1.34-1.39,2.68-2,4C1093.31,258,1089.44,254.58,1087.36,250Z"/><path class="cls-1" d="M778.34,252.49q3.15,0,6.33,0c-.89,1.86-1.9,3.8-1.67,5.94,1.56,1.54,4.37,1.59,5.21,3.94,1.43,3.44-.5,7.16-1.49,10.48-1.2-3.45-3.73-6.74-7.6-7.22-1.32,2.78-2.9,5.62-2.88,8.8-.15,3.41,1,6.65,1.92,9.89a21.4,21.4,0,0,1-7,4.54c-2.21-7.16-1.57-14.81-.47-22.1C771.29,261.15,775.37,257,778.34,252.49Z"/><path class="cls-1" d="M794.55,261.93c3.1-6.09,10.61-8.79,17.08-7.24q-1.51,2.44-3.09,4.84c3.8,2,8,5.08,8.15,9.79-1,6.38-6.27,10.55-10.33,15.07.74-4.62,2.25-9.09,2.79-13.74-2.08-1.51-4.25-3.61-7.05-3.12-2.64,1.73-2.62,5.32-4.34,7.75a75.88,75.88,0,0,0-7.3,12.27C790.66,278.91,790.89,269.92,794.55,261.93Z"/><path class="cls-1" d="M930.86,258.8a41.05,41.05,0,0,1,4.07-1.92c2.58.08,4,2.58,5.28,4.44.82,1.68,3,1,4.51,1.54,2.32,3,2.85,8-.87,10.14a62.11,62.11,0,0,1-2.06-7.35c-.53-1.9-2.74-2-4.27-2.65C934.91,262.32,932.94,260.39,930.86,258.8Z"/><path class="cls-1" d="M756.23,270c2.48-2.9,4.62-6.1,7.43-8.7,3.27,2.94,5.93,7.18,4.55,11.75a34.84,34.84,0,0,0-6.12-2.78c-2.12,6.11,1.27,12.35-.34,18.52a7.53,7.53,0,0,1-5.48-7.17C756.19,277.72,756.33,273.84,756.23,270Z"/><path class="cls-2" d="M865.8.5h1.75c5.55,1.33,10.6,4,15.86,6.11,3-.77,5.86-2.18,8.84-3.14-1.12,4.77-2.77,9.42-3.45,14.29,4.53-4.36,6.78-10.16,8.92-15.92A69.83,69.83,0,0,1,912,1.77a7.92,7.92,0,0,0-4.24,7.74c4.84-.6,9.07-4.68,14.12-3.22,1.93.37,3.34,1.85,4.89,3-2.46,1.3-4.92,2.58-7.32,4,4,0,8.1.09,12.15-.1,1.27-.32,2.85-2.11,4.07-.71,9.79,6.81,13,18.9,17.45,29.28-1.71-.93-3.37-1.87-5.06-2.79.31,2-.07,4.44,1.56,6,2.32,1.32,5.12,1.89,6.95,4,4.53,4.78,10.87,8.06,13.68,14.27,1.78,4,3.52,8,5.09,12.06,2.37,6.18,3.12,12.85,5.57,19-3-1.29-6.07-2.37-9.12-3.48,1.43,2.74,2.57,5.83,5,7.87,1.86,1.42,4.33,1.43,6.55,1.83,3.89,4.76,4,11.16,4.76,17-1.73-1.25-3.47-2.48-5.24-3.64-2.34,5,3.33,7.89,6.81,10q0,5.87,0,11.73c8.44,6.42,18.65,10.79,29.33,11.23a48.58,48.58,0,0,0,25.35-6.76,19,19,0,0,1,9.36-16.84c3.54-1.5,7.51-1.14,11.28-1.09,8.57.5,15.81,5.77,22.1,11.17,10.14,8.73,17.46,20.23,23.08,32.26a152.5,152.5,0,0,1,12.77,82,104,104,0,0,1-2.84,13.78c5,3.17,11,5.38,16.94,4.21,16-2.57,29.27-14,37.32-27.6,11.66-19.52,14.66-43,13-65.37a118.42,118.42,0,0,0-29.59-65.89c-9.22-9.92-19.88-18.82-32.34-24.35-8.78-2.46-17.65,1.59-26.52,1-4.47.06-8.38-2.39-12.11-4.53-4-2.59-8.08-5.33-10.52-9.5a30.36,30.36,0,0,0,11.94,2.84l-2.13-3.89c4.3-2.1,9.11-2.21,13.8-2.25-2.29-3.34-6.3-3.86-10-3.75-2.8.4-5.07-2.9-7.74-1.42a50.9,50.9,0,0,0,1.18,5.73c-3.5-1.58-7.31-1.91-11-2.4-3.39-3.43-4.66-8.35-7.85-11.93a21.42,21.42,0,0,0-5.95-4.57c-.11-.36-.35-1.07-.46-1.43,10.73-2.31,20.83-7.5,32-7.88,3.86.06,8,0,11.48,1.89L1098,43.83a25.19,25.19,0,0,0,11.43,4.74c-.84-2.54-1.66-5.07-2.44-7.61,4.24,2.41,8.58,5.07,11.48,9.11,7.43,13.35,19.21,23.65,31.61,32.3,14.59,10,26.24,23.81,35.23,38.94a138.7,138.7,0,0,1,18.7,60.82v14.7c-1.9,29.72-14,60.14-37.75,79-11.91,9.4-27.27,13.52-42.29,13.37-4.07.24-8.45-.83-12.21,1.16-4.26,2.14-8.88,3.74-13.7,3.61-16.76,0-33.51,0-50.27,0a87.64,87.64,0,0,1,2.16-11.26c.78-3,3.54-4.67,6-6.14,1.68,3.34,3.33,6.71,5.09,10,1.46-2.11,3-4.41,2.74-7.12,0-3.78-3.28-6.25-5.55-8.83,1.67-1.68,3.34-3.35,5-5,1.76,1.52,2.93,4.73,5.73,4.17,1.87,0,3.39-1.16,5-2-4.08-3.88-7.59-9.57-13.86-9.73-4.35.87-7.15,4.66-9.65,8a39.14,39.14,0,0,0-6,12.64c-.81,5-.73,10.18-1,15.27-3,0-6.08,0-9.12.09.64-6.39-.52-12.84.78-19.18q2.36,1.33,4.71,2.72c1.07-2,2.11-4,3.1-6-1.84-1.77-3.65-3.56-5.45-5.35.83-2.28,1.67-4.56,2.54-6.83q3.66,1.17,7.36,2.26-1-1.85-2-3.68c2.4-2.18,5.41.06,8,.56q.36-1.77.75-3.54c-5.56-2.09-11.9-3.67-17.64-1.37-.18.7-.55,2.09-.73,2.78-6,.82-12.14,1.64-18.09,2.9-3.12,3.58-5.58,7.69-8.59,11.37a70.78,70.78,0,0,0,.66,12.69c.62,4,3.25,7.16,5.08,10.63q-47.13.06-94.24,0a95,95,0,0,1,5.33-9.3c2.76,4,7.9,3,12,2.47,1.24-.41,3.62-1.11,3-2.84-3.52-1.58-7.6-2.37-10.36-5.25-.58-3.8.2-7.69-.54-11.47-1-4-5.15-6.11-8.94-6.31-3.91.08-7.24,2.3-10.07,4.78a41.86,41.86,0,0,0-8.71-5.18,39.74,39.74,0,0,1,.92-9,35.93,35.93,0,0,1,5.87-.65c5,0,9.07,3.83,14.15,3.42-3.33-8.08-13.51-10-21.3-8.91-3.39.24-5,3.66-6.91,5.93l-1.77-1.76c-4.86,1.41-9.69,2.85-14.57,4.15-1.93,6.38-7.27,11.15-8.85,17.67-.48,4.3-1,8.79.11,13,1.38,3.19,3.65,5.91,4.94,9.17q-61.24.09-122.48,0a33.33,33.33,0,0,1-4-22.28c.67-2.9,2.63-5.23,4.27-7.63-.68-6.69,4-12.26,9.28-15.69,3.8-2.16,8.36-1.57,12.4-.44,6.42-8.3,19.35-8.9,27.3-2.5,4.44-16.85,9.51-33.81,18.23-49-6-14.86-11.16-30.17-14.14-46a4.14,4.14,0,0,1,1-4c2.83-3.19,4.19-7.29,6.15-11-3.35,1.37-6.65,3-8.88,6,0-4.64-1-9.23-.87-13.86.27-3.08,3-4.84,5.56-6.11,0-3.18,0-6.37.06-9.56-2.47,2.07-4.91,4.17-7.26,6.37,0-4.31,0-8.61.09-12.91,1.76-1.5,4-3.11,3.89-5.72.07-14.52.57-29.32,5.1-43.24,1.26-3.62,4.17-6.26,6.92-8.77,0-3.93,0-7.86.06-11.79,2.7-1.93,5.23-4.09,7.75-6.26l-4.86-.07c3.08-9.14,10.68-15.72,18.3-21.13a131.44,131.44,0,0,0,16.47,3.31,22.3,22.3,0,0,0-7.75-5.26,22.49,22.49,0,0,1,12.4-4.51c2.37,4.14,4.62,8.65,8.58,11.51C868.61,9,869.2,3.91,865.8.5ZM834.45,25.73c-2.13,3.64-4.39,7.21-6.36,10.94a51.66,51.66,0,0,0,4.77,12c2.47,3.87,6.55,6.26,10.41,8.55-3.22,6.65-1.51,14.22,0,21.08L840,80c1.44,6.72,5.76,12.35,10.6,17,1.81,1.73,1.34,4.43,1.53,6.68-10.55-1.34-20.91,2.28-30.15,7.06.19,1.78.39,3.56.59,5.34a39.37,39.37,0,0,1,28.77-8c0,2.07-.06,4.14-.09,6.21-8.13,4.23-17,7.29-24,13.47,0,1.66,0,3.32.08,5,8.32-5.84,16.64-11.91,26.1-15.81a42.64,42.64,0,0,0,5.76,6.47c7.31-3.6,14.94-7.15,23.26-7.35.14-2.49.34-5,.58-7.47-3.73-1.77-6.67-5.38-5.71-9.75a33.82,33.82,0,0,1-5,1.93,9,9,0,0,1-2.43-6.24c5.26-3.91,12.1-3.07,18.25-3,3.72.33,8.16.17,10.87,3.22a6.68,6.68,0,0,1-.72,5.78c-1.49,0-3-.06-4.42-.07a14.77,14.77,0,0,1-8,8.13c.9,3.1,1,8.16,5,8.67,6.18,1.16,11.65,4.51,16.63,8.22a60.67,60.67,0,0,1,5.39-6.25c10.81,3.06,19.36,10.75,27.09,18.54q0-3.45,0-6.9a85.24,85.24,0,0,0-17.67-11.53c-2.81-1.52-5.89-2.6-8.49-4.46.17-1.95.43-3.9.63-5.85,11.35.61,22.14,4.73,32,10.19-.37-1.73.42-3.9-.75-5.37a78.19,78.19,0,0,0-21.82-7.67c-3.69-.65-7.47-.6-11.14-1.34,2.12-1.82,4.88-2.78,6.83-4.82a23.57,23.57,0,0,0,4.35-6.55c1.33-2.95,3.89-5.13,5.18-8.11s1.07-6.41,1.76-9.58a14.34,14.34,0,0,1-4.71,2.57c2.58-6.07,3.89-12.93,2-19.39,4.59-1.83,8.09-5.54,11.09-9.34,1.19-3.48,1-7.32,2.05-10.86-2.38-4.16-3.76-8.93-6.92-12.61-3.14-2.63-7.59-2.15-11.19-3.8-5.69-2.05-10.29,3.23-14.75,5.88-1.66,2.46-2.2,5.57-3.44,8.27A31.18,31.18,0,0,0,885,40.4C879.9,37,873.59,37,867.85,35.73c-1.95-3.48-2.82-8.85-7.77-9.12-.51-1.26-1-2.53-1.42-3.8A40.25,40.25,0,0,0,847,20C842.38,20.88,838.83,24.28,834.45,25.73ZM1074.9,50.49c2.66,2.15,6,1.89,9,.75,3.18,1.64,6.85.88,10.29.92a28.64,28.64,0,0,0-9-5.64C1081.81,48,1078.6,49.93,1074.9,50.49ZM819.37,61.12c1.78-.58,3.58-1.18,5.37-1.78,0-3,0-6,0-9.07C822.3,53.52,819.83,57,819.37,61.12ZM1104,57a29.61,29.61,0,0,1,7.36,7.11c2.72.5,5.29,1.73,6.68,4.26.18-5.39-4-9.09-6.32-13.53A67.94,67.94,0,0,0,1104,57ZM820,73.42c-1.52,3.25-3.24,6.53-3.71,10.11.73,4.15,2.67,8,3.3,12.18.68-6.12,2.92-12,2.78-18.22-.44-2.64,2-4.31,3.41-6.16Q822.9,72.43,820,73.42Zm124,2.83c-1.1,5.63-2.7,11.14-3.68,16.79l5.84-1.43a38.47,38.47,0,0,0,1.59-8.29C947.06,80.71,945.32,78.54,944,76.25Zm11.1,29.82a32.88,32.88,0,0,0,.47,9,10.76,10.76,0,0,0,9.31,7,102.49,102.49,0,0,0-4.07-10.58l-2.71.2C957,109.84,956.1,107.93,955.08,106.07ZM861.51,127c.62,4.26.82,9,3.92,12.39a27.19,27.19,0,0,1,5-4.25c.13,3.09.1,6.18,0,9.27A22.47,22.47,0,0,0,877,147c1-2.87,3-5.38,3.12-8.51q1.41-.81,2.91-1.5c.35,3.26.81,6.5,1.05,9.77,2.53,1,5.21.36,7.64-.63.63-3.66,1.58-7.25,2.48-10.85a14.93,14.93,0,0,1,3.77,7.2c4.25-3.7,5.71-9.29,6.89-14.57-5.51-1.86-10.89-4.28-16.71-5A41.79,41.79,0,0,0,861.51,127Zm190.22,17.09a25.14,25.14,0,0,1,7.32-3.24c5.58-1.85,10.83,1.86,16,3.52-.92-2.46-1.41-5.43-3.57-7.15-2.08-.49-4.23-.47-6.3-.88-1.63-.48-2-2.35-2.74-3.61C1056.1,131.14,1050.33,138.11,1051.73,144.06Zm-94.94-8.37c.46,1.23,1,2.46,1.45,3.7a42.55,42.55,0,0,1,12.2,1.39,26.67,26.67,0,0,1-5.41-5.24C962.85,132.94,959.44,135.29,956.79,135.69Zm-123.18,8.62a43.61,43.61,0,0,0,.81,4.68c1.34,7.35,7.89,12.3,14.25,15.32-.64-6.91-6.58-11.17-9.64-16.91C837.88,145.5,835.53,145,833.61,144.31Zm110.56,5.35c3.13,3.57,8.07,2.19,12.15,1.7-2.55-2.18-5.08-4.38-7.48-6.71C947.33,146.36,945.76,148,944.17,149.66ZM924,145.23q1.09,5.47,2.42,10.92c3.61,1.86,6.77,4.66,10.88,5.46-1.69-2.15-3.55-4.14-5.33-6.2.16-2.58,0-5.2-1.52-7.37C928.34,147.09,926.18,146.13,924,145.23Zm-72.77,2a55.77,55.77,0,0,0,5.39,14.14c.84-3.17,1.62-6.36,2.39-9.55C856.52,150.18,853.92,148.63,851.27,147.22Zm208.34,2.91c-4,1.86-7.32,6-5.61,10.6,2-1.78,4-4,6.77-4.56,4.53-1.52,9.25,0,13.86.14C1073,150.21,1065,146.24,1059.61,150.13ZM917.69,169.94c2,3.73,6.83,2.58,10.07,1.32-2.64-2.32-6.66-4-7.32-7.81-.84-4.1-1.69-8.2-2.8-12.24C914.63,157,913.7,164.37,917.69,169.94Zm57-12.52c3.83,2.6,9,3.36,13,.78a48.65,48.65,0,0,1-7.15-3.76C978.63,155.41,976.66,156.4,974.73,157.42Zm-151.64,3.16a17.33,17.33,0,0,0-3.71,4.93,55.32,55.32,0,0,1,1.5,5.55c2.46-3.61,5.92-6.32,9.37-8.93C827.85,161.61,825.46,161.13,823.09,160.58Zm237.44,2.68c-2.12,1.69-4,3.72-6.62,4.7.39,2.12.84,4.23,1.32,6.34,4.7-3.22,9.9-6.15,15.67-6.77,7.72-.1,15.15,2.7,22,6.06-1.34-3.35-2.52-7-5.26-9.5-2.87-2.7-6.13.8-9.39.55-.91-1.53-1.53-4.8-4-3.89C1069.91,162.61,1065.08,162.27,1060.53,163.26Zm-195.07-2c1,5.5,5,9.7,9,13.39-.59-4-1.52-8-1.92-12A19.12,19.12,0,0,0,865.46,161.23Zm33.81,8.62a44.82,44.82,0,0,0,8.79,4.19c-1.85-4.21-2.61-8.75-3.48-13.23C901.68,162.88,898.41,165.9,899.27,169.85Zm59.53-3.43c5.62,3.48,13.12,7,19.53,3.61-4.82-1.38-8.79-4.48-12.73-7.43A45.72,45.72,0,0,1,958.8,166.42Zm57.42-3.83c5.42,6.32,9.93,13.86,17.25,18.19,0-2,.07-4,.12-6-1.73-1.82-3.42-3.76-5.69-4.91C1023.59,168,1021.14,163.25,1016.22,162.59Zm-132.84,6.77a62.83,62.83,0,0,0,1.61,7.29c5.29-2.1,5.95-8.94,6.11-13.9A57.16,57.16,0,0,1,883.38,169.36Zm55.94,5.33c5.18,5.42,12.36,9.13,20,8.91a60.69,60.69,0,0,1-11.16-11.81A35.58,35.58,0,0,0,939.32,174.69Zm53.13-2.39c-.13,2.38-.63,4.81-.16,7.19a25.82,25.82,0,0,0,3,4.68c1.15-1.48,2.85-2.76,3.12-4.75C997.27,176.52,995.33,173.69,992.45,172.3Zm-158.69,2.63c-.57,4.27-2,8.36-2.63,12.63,4.66-3.17,8.58-8.19,8.7-14A14.48,14.48,0,0,0,833.76,174.93ZM1006,175c3,2,6.68,3.71,8,7.36,2.34,5.64,6.07,10.62,7.84,16.5,1.86,6.1,4.62,12,4.8,18.53-.06,1.23,1.26,1.76,2,2.53,0-5.22.76-10.4.87-15.61-.53-2.77-3.48-3.89-5.56-5.32a55.32,55.32,0,0,1,4.48-5.64c-2.67-2.71-3.87-6.36-5.63-9.63a7.61,7.61,0,0,1-6.37-5.91A14.33,14.33,0,0,0,1006,175Zm51,7c.11,2.66-.58,5.55.35,8.08a12.35,12.35,0,0,0,10.18-1.12c.48-1.61.93-3.23,1.41-4.84,1.93.32,3.86.7,5.8,1.08,1.9-2.39,7.14-4.21,7.67.24,1.43,5.55,8.16,5.54,12.75,6.15-.75-3-1.8-5.81-2.73-8.69-2.65-2-5.46-4.29-9-4-4.51,4.29-10.33-2-15.28.81A23.32,23.32,0,0,1,1057.06,182Zm-208.69,1.44c-3.57,5.29-7.45,10.66-13.25,13.71,3.43.11,7,.76,10.33-.37,1.14-.4,2.56-.93,2.69-2.36,1-3.56,1.75-7.2,2.85-10.73ZM921.22,185c4.5,3.43,9.32,6.79,15,7.92,3.25.72,6.52-.27,9.71-.87-2.84-1.63-5.84-3-8.6-4.72a40.21,40.21,0,0,1-2.39-4.43A53,53,0,0,0,921.22,185Zm79.6,6.36c.42,3.59,2.81,6.45,5,9.14,1.54-1.37,3.11-2.88,3.61-5-.4-2.1-2-3.57-3.36-5.13-.11-1.51-.2-3-.28-4.52l-2.41-2.27C1002.17,186,1000.83,188.57,1000.82,191.37ZM896.3,185.45c4,5.19,7.72,10.66,12.75,14.93a29,29,0,0,0,9.25-2.95,82.39,82.39,0,0,0-9.46-9.59C904.71,186.83,900.47,186.27,896.3,185.45Zm-44.2,11.89a25.79,25.79,0,0,0,12-.79c4.37-2,6.48-6.55,8.51-10.59h-5.8A46,46,0,0,1,852.1,197.34Zm26.41-2.45a45.53,45.53,0,0,1-10.36,13.73c4.48-2.1,10.44-2.11,13.4-6.58,2.37-2.9,4.63-6,5.71-9.63A16.19,16.19,0,0,0,878.51,194.89Zm154.81.9c1.69,4.81,4.07,9.34,6.17,14,1.52-4.6,1.76-10.07-1.84-13.81A30,30,0,0,0,1033.32,195.79Zm27.44,1.49c1,2,2,4.1,3.12,6.09,4.92-1.31,10.57-4,15.42-1.17a21.65,21.65,0,0,1,1.18,4.07A26.25,26.25,0,0,0,1088,209c.22-5.11-3.81-8.45-5.59-12.83C1075.42,193.69,1067.62,195,1060.76,197.28Zm-68.6,12.2c-.4,3.43,3.67,4.58,5.41,6.91-.33.71-1,2.13-1.31,2.84,2.74,3.22,3.85,7.33,4.12,11.49.35-4.62,3.77-8.54,3.32-13.22a39.65,39.65,0,0,0-4.84-3.18,14.45,14.45,0,0,0-1.14-12.53C995.39,203.93,993,206.32,992.16,209.48Zm18,0c-1.7,2.54,1.4,4.52,1.78,7a49.75,49.75,0,0,1-.79,9.1c1.83.68,4.5.16,5.7,2,.78,3,.2,6.09.15,9.13,2.08-3.14,4.75-6.16,5.28-10-1.08-1.53-3.32-1.4-4.9-2.13.44-2.28,1.45-4.58.91-6.92-1.21-4.66-.61-9.5-1.42-14.2C1014.79,205.55,1011.68,206.82,1010.21,209.52Zm52.36,11c2-1.62,3.92-3.34,5.84-5.08,2.63.14,5.57,0,7.76,1.75,3.67,2.31,3.5,7.76,7.49,9.71.11-3.94,0-7.88.09-11.81a34.09,34.09,0,0,1-9.44-3.84c-2.14-1.47-4.49-3.25-7.26-2.65C1062.89,211,1063.15,216.37,1062.57,220.5ZM825.49,209.66c-2.16,2.43-4.81,4.67-5.82,7.85,3.38-1.5,7.16-2.62,10.88-1.76a69.58,69.58,0,0,0,7,1.34c2.06,2.25,3.31,5.21,5.77,7.12,1.84,1.21,4.2,1.48,5.86,3,2.54,2.18,4,5.25,5.22,8.32.13-3.7.45-7.4.62-11.1l-6.26-2.2c0-.7,0-2.11,0-2.81-2.75-2.61-6.26-4.14-9.08-6.63C836.07,209,830.23,209.72,825.49,209.66ZM900,213.2c.3,1.69.62,3.37,1,5.06,2.91,1.46,5.75,3.22,9,3.7-1.2-3-2.54-5.88-4-8.75ZM939.39,217c-2.09,1.5-5.19.89-6.85,3.08-1.5,1.29-1.87,3.29-2.33,5.09a20.72,20.72,0,0,0,9-5c3.51-.2,6.48,1.89,9.79,2.68,1.49-.16,2.76-1.09,4.1-1.72,2,1.49,3.64,3.37,5.71,4.74,1.83.68,3.82.58,5.75.76-2.63-4.52-5.36-10.79-11.44-11-2.67,0-4.94-1.25-7.13-2.57C943.34,213.55,941.53,215.64,939.39,217Zm-64.6,1c1.45,2.18,3,4.26,4.63,6.36a11.92,11.92,0,0,0,9.26-1.5c-.82-1.63-1.61-3.25-2.4-4.88C882.44,218,878.61,218,874.79,218Zm-61.47,13.32c3.2-.45,6.41-2.21,9.69-1.48,4.25,3,8,6.9,12.91,8.76,3.09,1.13,6.25,2.27,8.87,4.36-.38.61-1.13,1.83-1.51,2.43,1.63,2.81,1.59,6.13,2.29,9.22,1.79-1.72,3.55-3.48,5.3-5.24-.55-2.32-.67-4.8-1.67-7-1.25-.88-2.81-1.11-4.06-1.95-1-1.1-1-2.65-1.43-4-4.67-2.74-8.54-6.55-13-9.61-3.76-2.23-7.93-4.79-12.51-3.75C815.11,224.58,814.56,228.46,813.32,231.31Zm247.79-4.54c-.86,2.56-2,5.19-1.13,7.92,4.39-.54,10-3.64,13.53.42,1.4,3.29,2.27,7.43,6.26,8.49.69-2.39,1.29-4.81,1.91-7.22-1.1-2.17-2-4.41-3.3-6.48A24.12,24.12,0,0,0,1061.11,226.77Zm-87.08.54c2,8.11,6.56,16.07,4.81,24.69a55,55,0,0,1,4.17,5.31c0-7,0-14-1-20.88C980.13,232.81,976.72,230.27,974,227.31Zm-49.16,4.53c-1.17,2.77-2.31,5.55-3.47,8.32,4-3.36,9.19-4.53,14.18-5.57l1.4,1.69c6.53,0,13.07-1.68,19.57-.22,2.08,3.5,6.09,4.56,9.55,6.17q-.33-3.15-.66-6.28c-7.74-7.23-18.82-5.31-28.38-6.63C932.88,229.53,929,231.07,924.87,231.84Zm171.5,8.62c1.45,2.28,2.93,4.53,4.46,6.77,3.28-5,2.73-11.58-.55-16.46C1098.45,233.77,1097.62,237.21,1096.37,240.46Zm-285.22-2.6a14.58,14.58,0,0,0-2.36,6.66c1.62-.07,3.43-.9,5-.06,5.87,3.11,12.61,5,17.29,10,2.29,4.43,3.62,9.31,5.64,13.88a21,21,0,0,0,1.71-13.41c-2.82-.93-5.67-1.75-8.52-2.51-1.32-2.35-1.16-5.12-2.12-7.55-3-2.46-6.77-3.92-10.16-5.86C815.68,237.77,813.34,237.94,811.15,237.86Zm237.94,9.85c2.34-1.08,4.34-3.1,7-3.52,3.72-.23,4.11,4.57,5.14,7.21a19.32,19.32,0,0,1,10.77,3.07c.63-1,1.26-1.91,1.91-2.86a12,12,0,0,0-10.71-5.22q.33-2.47.69-5c-2.3-.23-4.14-1.61-6-2.86C1055.08,241.75,1052,244.66,1049.09,247.71Zm-115.18-3.12c-3.65.43-5,4.26-6.77,6.88,4.55-.56,9.29-.06,13.54-2.13a69.11,69.11,0,0,1,7,8.53c1.41,2.81,5.2.7,7,3,2.74,3.24,2.16,7.88,2.4,11.84q2.1-1.08,4.23-2.15c0-2.27.63-4.7-.51-6.8-1.09-3.53-4.89-4.7-7.54-6.77l1.67-2.59c-1.32-1.87-2.79-3.65-4.21-5.43,3,.6,7-.19,9.14,2.61,1.42,1.36,2,3.3,2.78,5.07,5.52,1.11,7.22,7.1,8.55,11.8a92.11,92.11,0,0,1,3.3-9.7,40.43,40.43,0,0,0-4.7-2.21c-.45-2.71-1.11-5.72-3.69-7.21-3.79-2.13-8-3.48-12-5C947.56,241.68,940.55,243.76,933.91,244.59ZM1087.36,250c2.08,4.55,6,7.94,8,12.47.64-1.36,1.32-2.7,2-4-2.37-2.06-1.74-5.16-1.8-7.92-.71-2.59-3.19-4.17-4.9-6.06Q1089,247.21,1087.36,250Zm-309,2.46c-3,4.47-7,8.66-7.68,14.23-1.1,7.29-1.74,14.94.47,22.1a21.4,21.4,0,0,0,7-4.54c-.87-3.24-2.07-6.48-1.92-9.89,0-3.18,1.56-6,2.88-8.8,3.87.48,6.4,3.77,7.6,7.22,1-3.32,2.92-7,1.49-10.48-.84-2.35-3.65-2.4-5.21-3.94-.23-2.14.78-4.08,1.67-5.94Q781.49,252.51,778.34,252.49Zm16.21,9.44c-3.66,8-3.89,17-4.09,25.62a75.88,75.88,0,0,1,7.3-12.27c1.72-2.43,1.7-6,4.34-7.75,2.8-.49,5,1.61,7.05,3.12-.54,4.65-2.05,9.12-2.79,13.74,4.06-4.52,9.33-8.69,10.33-15.07-.13-4.71-4.35-7.82-8.15-9.79q1.57-2.4,3.09-4.84C805.16,253.14,797.65,255.84,794.55,261.93Zm136.31-3.13c2.08,1.59,4.05,3.52,6.66,4.2,1.53.61,3.74.75,4.27,2.65a62.11,62.11,0,0,0,2.06,7.35c3.72-2.14,3.19-7.14.87-10.14-1.5-.56-3.69.14-4.51-1.54-1.33-1.86-2.7-4.36-5.28-4.44A41.05,41.05,0,0,0,930.86,258.8ZM756.23,270c.1,3.87,0,7.75,0,11.62a7.53,7.53,0,0,0,5.48,7.17c1.61-6.17-1.78-12.41.34-18.52a34.84,34.84,0,0,1,6.12,2.78c1.38-4.57-1.28-8.81-4.55-11.75C760.85,263.87,758.71,267.07,756.23,270Z"/><path class="cls-2" d="M836.08,42.3c-.4-6.78,3.68-16.67,11.91-15.52,5.33,3,12.84,5,14,12a99.57,99.57,0,0,0-15.34,9.76C843.73,45.19,837.79,46.92,836.08,42.3Z"/><path class="cls-2" d="M914.28,31.85c2.35-2.25,5.43-3.5,8.19-5.17,4.37,3.34,10,6.07,11.6,11.82.88,4,1.29,8.58-.75,12.29a36.79,36.79,0,0,1-7.93,1.84,33,33,0,0,0-13.66-13.89C912.3,36.39,912.34,33.6,914.28,31.85Z"/><path class="cls-2" d="M891.37,48.08c2.32-2.33,5.6-.52,8.43-.54C901.17,50,903,52.35,906,52.76l.88,2.15a48.89,48.89,0,0,1-8.56-.16c-1.4-1.65-1.87-3.82-2.92-5.66C894,48.69,892.71,48.36,891.37,48.08Z"/><path class="cls-2" d="M867.77,50.19c3.67-1.65,7.54-3.25,11.64-3.26-1.59,2.94-4.32,5.06-5.83,8-3.09,0-6.17,0-9.25-.08C865.06,53.1,865.8,51,867.77,50.19Z"/><path class="cls-2" d="M849.2,61.27c6-.06,11.9,0,17.85,0,3.34-.39,6.44,3,5.91,6.32-.49,6.73-2.15,13.31-2.59,20-2.46,1.66-5.08,3.54-5.63,6.66-3,1.27-5.81,2.89-8.88,3.93a21,21,0,0,1,1-9.48,76.8,76.8,0,0,0,7.72-2.83c2.76-4.59,2.36-10.12,2.44-15.26-2.15.55-4.31,1.05-6.43,1.69a9.75,9.75,0,0,1-6.75-5.66A7.13,7.13,0,0,1,849.2,61.27Z"/><path class="cls-2" d="M894.29,66.12c2.76-1.21,4.8-3.7,7.59-5,6.16,1,12.37,1.6,18.53,2.53-1.39,2-3.63,2.63-5.9,2.93-1,6-7.57,6.91-12.52,5.89l-2.6-2.87A72.64,72.64,0,0,1,900,82.57c1.59.6,3.19,1.18,4.79,1.83a30.64,30.64,0,0,0,1.62,4.53c3.15,1.23,6.71,1.82,9.17,4.33a21.6,21.6,0,0,1-3.14,5.85,76.18,76.18,0,0,0-9.93-4.78c-.2-3.91-3.09-6.66-6.76-7.49C895.75,79.91,896,72.89,894.29,66.12Z"/><path class="cls-2" d="M856.52,106.86c3.38.79,7.33-1.12,10.25,1.24a25.52,25.52,0,0,0-7.8,3.78A7,7,0,0,1,856.52,106.86Z"/><path class="cls-2" d="M899.45,109.15c2.78-1.85,6.4-.59,9.55-.9,0,1.48,0,3,0,4.45C905.81,111.51,902.61,110.38,899.45,109.15Z"/><path class="cls-2" d="M882.39,261.1a83.48,83.48,0,0,1,8.93-1.72,24.93,24.93,0,0,0-2.21,8.09c-.63,9.07.67,18.42,4.7,26.63-3.26-.15-6.52-.15-9.78-.14-1.56-6-6.93-10.84-6.22-17.37.37-4.45,7.23-3,7.68-7.74-.45-.69-1.34-2.09-1.78-2.78l-5,1.77A13.63,13.63,0,0,1,882.39,261.1Z"/><path class="cls-2" d="M1022.66,264.09c2.67-.22,5.33-.45,8-.66-1.35,3.63-3.1,7.21-3.36,11.12,0,6.57,1.42,13,2.59,19.46q-3.87,0-7.69,0c-3.25-6.29-6.75-13.32-5.11-20.6.45-1.07.74-3.6,2.42-2.45,1,2,1.67,4.27,3.16,6,1.21-2,2.71-4,2.88-6.46C1025.52,268,1024,266,1022.66,264.09Z"/><path class="cls-2" d="M896,272.42c0-2.87,2-5.12,3.86-7.09,2.36,2.71,5.53,4.86,7.39,7.91.19,6.92-.79,13.82-.77,20.75q-3.35,0-6.68,0A64.53,64.53,0,0,1,896,272.42Z"/><path class="cls-2" d="M913.56,272.22c1.77-1.63,3.78-3.62,6.44-3.22,2.56-.15,5.36,1.59,5,4.47-1.3,7.18-5,13.65-7.27,20.54-2,0-3.9,0-5.83,0C912.41,286.71,913.22,279.48,913.56,272.22Z"/><path class="cls-3" d="M501.43,84.93a136.22,136.22,0,0,1,67.64-20.49c22.11-1.16,44.06,4.12,64.4,12.49,4,1.24,8.65,3.74,12.83,1.86,4.32-3.43,4.58-9.53,5.63-14.54h8.22c2.34,26,4.81,52,7.2,77.94l-9.85,0a94.71,94.71,0,0,0-6.26-17C644.16,110.75,632,99,617.82,91.58a90.94,90.94,0,0,0-58-7.71,70.09,70.09,0,0,0-43.09,27.44c-11.53,15.68-17.05,35-19,54.14-1.48,16.39-1,33.13,3.25,49.1,4.31,16.51,12.32,32.38,24.64,44.35A76.37,76.37,0,0,0,574,281.49c17.26,1.67,34.46-3,50-10.17-.08-20.29.16-40.59-.12-60.88-.22-6.79-.35-15.08-6.39-19.52-7-4.88-15.9-4.46-24-5,0-3,0-6,0-9H695.25c0,3,0,6,0,9-5.7.33-11.65.3-17,2.69-3.87,1.71-6.22,5.74-6.91,9.78-1.17,6.63-.85,13.39-.89,20.08,0,19.08,0,38.15,0,57.22-26.2,13.12-54.72,22.18-84.11,23.77H567.73c-29.7-1.57-59.92-9.72-83.73-28.13a103.3,103.3,0,0,1-37.12-54.91A115.07,115.07,0,0,1,451.49,144C461.21,119.6,479.21,98.79,501.43,84.93Z"/><path class="cls-3" d="M0,69.25c37.89,0,75.77,0,113.66,0,0,3,.05,6,.05,9-7-.06-14.12-.22-20.87,1.85a15,15,0,0,0-9.38,9C81.56,94,81.14,99.32,81,104.53q0,77,0,154c.26,8,1.57,17.46,8.76,22.34,7.07,4.49,15.89,4,23.93,4.2v9H0v-9c8.5-.14,18,.06,25-5.47,6.7-6,7.49-15.64,7.7-24.06q0-74.52,0-149c-.36-8.54-.66-19-8.28-24.49C17.14,77.6,8.18,78.33,0,78.21Z"/><path class="cls-3" d="M154.28,69.26q38.19,0,76.36,0c47.09,48.11,93.74,96.63,141,144.59-.28-3.13-.64-6.25-.63-9.39q0-48,0-96c-.39-8.13-.49-17.29-6.18-23.75-6.08-6-15.27-6.48-23.32-6.55,0-3,0-6,0-8.93q40.49,0,81,0c0,3,0,6,0,8.94-7.86.08-16.7.5-22.92,5.91-5.82,5.09-7,13.25-7.75,20.52-1,15.94-.46,31.92-.59,47.88q0,71.62,0,143.26c-4.61,0-9.22,0-13.83-.06q-85.6-88.62-171.46-177c.2,2.59.52,5.16.54,7.76q0,61.56,0,123.14c.25,7.82.18,15.9,3,23.33a16.5,16.5,0,0,0,10.34,9.86A52.12,52.12,0,0,0,237,285c.06,3,.06,6,0,9-27.08,0-54.16,0-81.24,0q0-4.47,0-8.94c8.62-.21,18.86-.75,24.75-8,5.35-7.32,5.29-16.85,5.78-25.5q.08-70.55,0-141.09c-.31-8.16-.94-17.19-6.58-23.63-6.28-7.1-16.42-8.67-25.42-8.66Q154.3,73.72,154.28,69.26Z"/></svg>